HIERARCHY
ROOT Hips
{
	OFFSET 0.000000 0.000000 0.000000
	CHANNELS 6 Xposition Yposition Zposition Zrotation Yrotation Xrotation 
	JOINT LHipJoint
	{
		OFFSET 0.000000 0.000000 0.000000
		CHANNELS 3 Zrotation Yrotation Xrotation
		JOINT LeftUpLeg
		{
			OFFSET 1.363060 -1.794630 0.839290
			CHANNELS 3 Zrotation Yrotation Xrotation
			JOINT LeftLeg
			{
				OFFSET 2.448110 -6.726130 0.000000
				CHANNELS 3 Zrotation Yrotation Xrotation
				JOINT LeftFoot
				{
					OFFSET 2.562200 -7.039590 0.000000
					CHANNELS 3 Zrotation Yrotation Xrotation
					JOINT LeftToeBase
					{
						OFFSET 0.157640 -0.433110 2.322550
						CHANNELS 3 Zrotation Yrotation Xrotation
						End Site
						{
							OFFSET 0.000000 0.000000 0.000000
						}
					}
				}
			}
		}
	}
	JOINT RHipJoint
	{
		OFFSET 0.000000 0.000000 0.000000
		CHANNELS 3 Zrotation Yrotation Xrotation
		JOINT RightUpLeg
		{
			OFFSET -1.305520 -1.794630 0.839290
			CHANNELS 3 Zrotation Yrotation Xrotation
			JOINT RightLeg
			{
				OFFSET -2.542530 -6.985550 0.000000
				CHANNELS 3 Zrotation Yrotation Xrotation
				JOINT RightFoot
				{
					OFFSET -2.568260 -7.056230 0.000000
					CHANNELS 3 Zrotation Yrotation Xrotation
					JOINT RightToeBase
					{
						OFFSET -0.164730 -0.452590 2.363150
						CHANNELS 3 Zrotation Yrotation Xrotation
						End Site
						{
							OFFSET 0.000000 0.000000 0.000000
						}
					}
				}
			}
		}
	}
}
MOTION
Frames: 19
Frame Time: 0.008333
5.765476 15.388986 1.759043 75.392339 -85.895778 -35.656634 -11.223105 -2.799451 -2.571041 -11.888514 -2.363207 -63.191641 1.426846 5.077612 82.682398 3.885883 18.443962 -24.091443 -4.890400 0.000000 -5.281900 7.724966 -0.056291 -3.030549 19.460324 -5.448073 -72.924358 2.795165 -7.024690 65.703645 -1.143954 5.364377 -31.058136 -0.426300 -0.000000 -7.999800
5.641521 15.412926 1.737934 75.117099 -85.943758 -35.161166 -10.968421 -2.932846 -2.374619 -11.887357 -3.182792 -65.173466 1.370716 5.113940 82.259274 3.912698 18.070230 -24.680879 -4.969000 0.000000 -5.430900 7.783279 -0.038664 -3.200539 19.597712 -5.798652 -72.355552 2.885813 -6.998701 65.362918 -1.104127 5.627341 -31.117001 -0.517400 0.000001 -8.896400
5.516063 15.436359 1.717630 74.768071 -85.996710 -34.584937 -10.704185 -3.050149 -2.165096 -11.871616 -3.990232 -67.166266 1.304262 5.139680 81.682154 3.952845 17.758227 -25.176252 -5.026100 -0.000000 -5.683200 7.842407 -0.023868 -3.362557 19.730864 -6.134409 -71.795926 2.972224 -6.970682 65.020726 -1.065270 5.870039 -31.145322 -0.602500 0.000000 -9.856400
5.388992 15.459009 1.697988 74.407070 -86.051418 -33.993287 -10.434333 -3.148025 -1.945412 -11.855848 -4.774685 -69.156612 1.228288 5.155146 80.948913 4.007272 17.518733 -25.558215 -5.060200 -0.000000 -6.172200 7.900916 -0.012801 -3.516474 19.856302 -6.457314 -71.239192 3.053618 -6.939775 64.676375 -1.027192 6.090278 -31.139123 -0.680200 0.000000 -10.997800
5.260196 15.480767 1.679150 74.014237 -86.112613 -33.373541 -10.161608 -3.223703 -1.720188 -11.850588 -5.521250 -71.128709 1.139834 5.161961 80.062215 4.076881 17.344334 -25.871554 -5.086300 0.000000 -6.500500 7.957610 -0.007517 -3.663373 19.980442 -6.767030 -70.674723 3.132414 -6.905593 64.329611 -0.992399 6.291530 -31.127357 -0.751699 0.000000 -12.110300
5.129629 15.501463 1.661104 73.612246 -86.179568 -32.756672 -9.890010 -3.273998 -1.493469 -11.872615 -6.220746 -73.059204 1.035707 5.160937 79.018753 4.159485 17.216319 -26.139206 -5.108000 -0.000001 -6.579000 8.011348 -0.009023 -3.805180 20.103075 -7.068926 -70.092161 3.209418 -6.867913 63.981458 -0.961630 6.476488 -31.122650 -0.817900 0.000000 -13.155900
4.997236 15.520902 1.643594 73.285669 -86.244925 -32.236013 -9.624903 -3.296049 -1.268281 -11.943691 -6.870994 -74.919360 0.912721 5.151945 77.807654 4.249734 17.107653 -26.356414 -5.117500 -0.000000 -6.579400 8.060651 -0.017598 -3.944025 20.216415 -7.372602 -69.483482 3.283477 -6.826700 63.633177 -0.933437 6.646353 -31.116148 -0.879600 -0.000000 -14.281200
4.862820 15.538977 1.626890 72.977226 -86.314966 -31.761098 -9.368698 -3.287870 -1.047723 -12.073912 -7.465609 -76.684897 0.764883 5.135645 76.425811 4.342934 16.977879 -26.577044 -5.122700 0.000000 -6.238500 8.105414 -0.034810 -4.082577 20.327871 -7.681963 -68.837809 3.357696 -6.782547 63.288203 -0.910284 6.809189 -31.143809 -0.940300 0.000000 -15.189400
4.726322 15.555510 1.610699 72.806173 -86.379451 -31.458104 -9.126887 -3.247940 -0.833042 -12.284150 -8.009200 -78.326155 0.588139 5.111078 74.857448 4.430696 16.789870 -26.784365 -5.109000 -0.000000 -5.893700 8.144392 -0.060481 -4.223006 20.425950 -8.008746 -68.150770 3.429499 -6.735909 62.948305 -0.888838 6.965427 -31.178439 -1.000300 0.000000 -16.185000
4.587511 15.570447 1.595276 72.717924 -86.443844 -31.275829 -8.900884 -3.175825 -0.624345 -12.578189 -8.502343 -79.825375 0.377102 5.077616 73.096901 4.506353 16.501784 -27.009974 -5.076601 0.000000 -5.352700 8.178152 -0.095463 -4.367168 20.516002 -8.355791 -67.416725 3.500663 -6.687504 62.615209 -0.869749 7.121283 -31.235714 -1.062101 -0.000000 -17.097300
4.446227 15.583732 1.580709 72.694206 -86.510474 -31.196681 -8.692405 -3.071795 -0.419541 -12.956979 -8.949198 -81.169431 0.128977 5.033215 71.134175 4.561722 16.081833 -27.235621 -5.011700 0.000000 -4.815200 8.207218 -0.140035 -4.515817 20.599390 -8.724663 -66.634290 3.571392 -6.637830 62.290070 -0.852478 7.279643 -31.315088 -1.127199 -0.000000 -17.899800
4.302266 15.595234 1.566904 72.800879 -86.575259 -31.285092 -8.503974 -2.936798 -0.216379 -13.424731 -9.356272 -82.346691 -0.158334 4.975443 68.958914 4.589453 15.511133 -27.428465 -4.899900 0.000000 -4.524000 8.231649 -0.193375 -4.669640 20.668974 -9.119399 -65.804755 3.639837 -6.587273 61.972474 -0.834351 7.440012 -31.392027 -1.195200 0.000000 -18.811200
4.155459 15.604941 1.553935 73.029797 -86.640435 -31.529077 -8.336196 -2.772728 -0.011088 -13.974860 -9.728480 -83.355813 -0.485388 4.901229 66.566556 4.583993 14.783610 -27.555859 -4.731300 -0.000000 -4.574500 8.252246 -0.254910 -4.828486 20.724986 -9.538100 -64.929958 3.705911 -6.535897 61.660547 -0.814602 7.602958 -31.459610 -1.265800 0.000000 -19.823500
4.005622 15.612873 1.542093 73.256018 -86.717602 -31.795977 -8.187007 -2.582290 0.201778 -14.588177 -10.069023 -84.207408 -0.850728 4.806388 63.958207 4.543130 13.910844 -27.589963 -4.503300 0.000000 -5.021301 8.271377 -0.324380 -4.990482 20.776227 -9.969450 -64.012231 3.770587 -6.482977 61.348443 -0.794097 7.765905 -31.519231 -1.338100 -0.000001 -20.881900
3.852442 15.618929 1.531462 73.434957 -86.811537 -32.031270 -8.055656 -2.369059 0.427265 -15.249668 -10.382605 -84.911659 -1.251632 4.686167 61.136586 4.466926 12.921445 -27.495953 -4.218001 0.000000 -5.950600 8.290585 -0.400967 -5.153675 20.824107 -10.404525 -63.054753 3.833962 -6.427603 61.030299 -0.773054 7.925370 -31.566036 -1.409999 0.000000 -21.995700
3.696060 15.623240 1.521868 73.614627 -86.919694 -32.280316 -7.942468 -2.137983 0.667500 -15.951400 -10.673409 -85.471448 -1.685009 4.535495 58.107314 4.357744 11.855562 -27.248001 -3.884600 -0.000000 -7.407200 8.310242 -0.482363 -5.318117 20.861974 -10.840772 -62.058745 3.895060 -6.369061 60.701123 -0.750708 8.077414 -31.587478 -1.479700 -0.000000 -23.252900
3.536422 15.625819 1.513330 73.752503 -87.046436 -32.496406 -7.845740 -1.894991 0.924551 -16.677669 -10.943062 -85.893828 -2.146593 4.348339 54.883444 4.220979 10.757898 -26.844647 -3.520900 -0.000000 -9.326801 8.332114 -0.566881 -5.482811 20.889800 -11.270757 -61.023223 3.953549 -6.306079 60.352786 -0.727224 8.215545 -31.574746 -1.543800 -0.000000 -24.785200
3.373407 15.626649 1.506098 73.709091 -87.203536 -32.532452 -7.762104 -1.648007 1.200915 -17.400415 -11.191232 -86.191019 -2.629968 4.117503 51.486311 4.065226 9.675556 -26.307658 -3.149199 0.000000 -11.537100 8.358379 -0.654157 -5.645243 20.915670 -11.679079 -59.946253 4.012011 -6.237061 59.979965 -0.706313 8.339003 -31.559082 -1.602700 0.000000 -26.270501
3.207103 15.625751 1.500017 73.512352 -87.390514 -32.418973 -7.690132 -1.406089 1.493356 -18.105774 -11.414567 -86.358674 -3.128266 3.836564 47.942031 3.898078 8.646768 -25.665302 -2.788000 0.000000 -13.924600 8.390045 -0.741858 -5.806080 20.933422 -12.065374 -58.821961 4.069551 -6.160975 59.577269 -0.687431 8.443997 -31.531249 -1.654400 -0.000000 -27.859000
